<?xml version="1.0" encoding="UTF-8" standalone="no"?>
<!-- Creator: CorelDRAW -->

<svg
   xmlns:dc="http://purl.org/dc/elements/1.1/"
   xmlns:cc="http://creativecommons.org/ns#"
   xmlns:rdf="http://www.w3.org/1999/02/22-rdf-syntax-ns#"
   xmlns:svg="http://www.w3.org/2000/svg"
   xmlns="http://www.w3.org/2000/svg"
   xmlns:sodipodi="http://sodipodi.sourceforge.net/DTD/sodipodi-0.dtd"
   xmlns:inkscape="http://www.inkscape.org/namespaces/inkscape"
   xml:space="preserve"
   width="538.88525"
   height="364.64316"
   shape-rendering="geometricPrecision"
   text-rendering="geometricPrecision"
   image-rendering="optimizeQuality"
   viewBox="0 0 152085.39 102910.4"
   id="svg2"
   version="1.1"
   inkscape:version="0.48.0 r9654"
   sodipodi:docname="35mm_film_format_with_optical_soundtrack.svg"
   style="fill-rule:evenodd"><metadata
   id="metadata109"><rdf:RDF><cc:Work
       rdf:about=""><dc:format>image/svg+xml</dc:format><dc:type
         rdf:resource="http://purl.org/dc/dcmitype/StillImage" /></cc:Work></rdf:RDF></metadata><defs
   id="defs107" /><sodipodi:namedview
   pagecolor="#ffffff"
   bordercolor="#666666"
   borderopacity="1"
   objecttolerance="10"
   gridtolerance="10"
   guidetolerance="10"
   inkscape:pageopacity="0"
   inkscape:pageshadow="2"
   inkscape:window-width="1280"
   inkscape:window-height="726"
   id="namedview105"
   showgrid="false"
   inkscape:zoom="0.66963634"
   inkscape:cx="241.63985"
   inkscape:cy="161.86185"
   inkscape:window-x="0"
   inkscape:window-y="25"
   inkscape:window-maximized="1"
   inkscape:current-layer="svg2"
   fit-margin-top="20"
   fit-margin-left="20"
   fit-margin-right="20"
   fit-margin-bottom="20" />
 <g
   id="Layer 1"
   transform="matrix(1.9067159,0,0,1.9067159,-225.54436,-979.48744)">
  <g
   id="g5">
   <g
   id="g7">
    <g
   id="g9">
     <g
   id="g11">
      
      <path
   d="m 19373,5628 c 1147,170 2274,459 3341,872 3970,1537 7044,431 10695,-1035 3895,-1563 8139,2290 11964,563 l 0,0 3000,-1123 c 495,-172 1004,-273 1500,-376 l 0,37486 c -2808,-569 -5766,-390 -8874,538 -3305,987 -7318,-1647 -10350,0 -3335,1812 -6382,2329 -8797,0 -1735,-1674 -4343,-1188 -6979,-633 l 0,-36364 c 496,-56 997,-92 1500,-105 z"
   id="path13"
   inkscape:connector-curvature="0"
   style="fill:#1f1a17;stroke:#1f1a17;stroke-width:39.85911179"
   sodipodi:nodetypes="ccccccccccccccc" /><path
   d="m 42143,6415 0,3219 c 0,648 -530,1179 -1179,1179 l -19411,0 c -649,0 -1180,-531 -1180,-1179 l 0,-3826 c 801,170 1586,400 2341,692 3970,1537 7044,431 10695,-1035 2826,-1134 5835,582 8734,950 z m 0,35829 c -379,91 -760,194 -1144,309 -3305,987 -7318,-1647 -10350,0 -3335,1812 -6382,2329 -8797,0 -441,-426 -939,-712 -1479,-892 l 0,-7669 c 0,-648 531,-1179 1180,-1179 l 19411,0 c 649,0 1179,531 1179,1179 l 0,8252 z m -20590,-28431 19411,0 c 649,0 1179,531 1179,1179 l 0,13642 c 0,648 -530,1179 -1179,1179 l -19411,0 c -649,0 -1180,-531 -1180,-1179 l 0,-13642 c 0,-648 531,-1179 1180,-1179 z"
   id="path15"
   inkscape:connector-curvature="0"
   style="fill:#dededd" />
     <path
   style="fill:#ffffff;stroke:none"
   inkscape:connector-curvature="0"
   id="path3027"
   d="m 16366.093,5268.2581 0,740.8344 c 0,186 152,337 337,337 l 2327,0 c 185,0 336,-151 336,-337 l 0,-563.8344 m 25975.842,575.8344 c 7,180 180.16,325 361.16,325 l 2327,0 c 185,0 335.99,-151 335.99,-337 l 0,-1111 -3024.15,-818.0752 z m -28638.842,31574.9995 2327,0 c 185,0 336,151 336,337 l 0,1326 c 0,186 -151,337 -336,337 l -2327,0 c -185,0 -337,-151 -337,-337 l 0,-1326 c 0,-186 152,-337 337,-337 z m 0,-4750 2327,0 c 185,0 336,151 336,337 l 0,1326 c 0,186 -151,337 -336,337 l -2327,0 c -185,0 -337,-151 -337,-337 l 0,-1326 c 0,-186 152,-337 337,-337 z m 0,-4750 2327,0 c 185,0 336,151 336,337 l 0,1326 c 0,186 -151,337 -336,337 l -2327,0 c -185,0 -337,-151 -337,-337 l 0,-1326 c 0,-186 152,-337 337,-337 z m 0,-4750 2327,0 c 185,0 336,151 336,337 l 0,1326 c 0,186 -151,337 -336,337 l -2327,0 c -185,0 -337,-151 -337,-337 l 0,-1326 c 0,-186 152,-337 337,-337 z m 0,-4750 2327,0 c 185,0 336,151 336,337 l 0,1326 c 0,186 -151,337 -336,337 l -2327,0 c -185,0 -337,-151 -337,-337 l 0,-1326 c 0,-186 152,-337 337,-337 z m 0,-4750 2327,0 c 185,0 336,151 336,337 l 0,1326 c 0,186 -151,337 -336,337 l -2327,0 c -185,0 -337,-151 -337,-337 l 0,-1326 c 0,-186 152,-337 337,-337 z m 0,-4749.9995 2327,0 c 185,0 336,151 336,337 l 0,1325.9995 c 0,186 -151,337 -336,337 l -2327,0 c -185,0 -337,-151 -337,-337 l 0,-1325.9995 c 0,-186 152,-337 337,-337 z m 29000.002,28499.9995 2327,0 c 185,0 335.99,151 335.99,337 l 0,1326 c 0,186 -150.99,337 -335.99,337 l -2327,0 c -185,0 -337,-151 -337,-337 l 0,-1326 c 0,-186 152,-337 337,-337 z m 0,-4750 2327,0 c 185,0 335.99,151 335.99,337 l 0,1326 c 0,186 -150.99,337 -335.99,337 l -2327,0 c -185,0 -337,-151 -337,-337 l 0,-1326 c 0,-186 152,-337 337,-337 z m 0,-4750 2327,0 c 185,0 335.99,151 335.99,337 l 0,1326 c 0,186 -150.99,337 -335.99,337 l -2327,0 c -185,0 -337,-151 -337,-337 l 0,-1326 c 0,-186 152,-337 337,-337 z m 0,-4750 2327,0 c 185,0 335.99,151 335.99,337 l 0,1326 c 0,186 -150.99,337 -335.99,337 l -2327,0 c -185,0 -337,-151 -337,-337 l 0,-1326 c 0,-186 152,-337 337,-337 z m 0,-4750 2327,0 c 185,0 335.99,151 335.99,337 l 0,1326 c 0,186 -150.99,337 -335.99,337 l -2327,0 c -185,0 -337,-151 -337,-337 l 0,-1326 c 0,-186 152,-337 337,-337 z m 0,-4750 2327,0 c 185,0 335.99,151 335.99,337 l 0,1326 c 0,186 -150.99,337 -335.99,337 l -2327,0 c -185,0 -337,-151 -337,-337 l 0,-1326 c 0,-186 152,-337 337,-337 z m 0,-4749.9995 2327,0 c 185,0 335.99,151 335.99,337 l 0,1325.9995 c 0,186 -150.99,337 -335.99,337 l -2327,0 c -185,0 -337,-151 -337,-337 l 0,-1325.9995 c 0,-186 152,-337 337,-337 z"
   sodipodi:nodetypes="cssssccssscccssssssssssssssssssssssssssssssssssssssssssssssssssssssssssssssssssssssssssssssssssssssssssssssssssssssssssssssssssssssssssssss" /></g>
     <path
   d="m 43948,23819 25,1724 c 204,308 464,596 442,983 -160,269 -335,32 -417,393 0,210 0,420 0,630 49,168 98,336 147,504 -49,118 -98,236 -147,353 208,175 94,344 -108,556 -24,99 83,322 58,478 159,59 320,132 542,605 -11,65 -171,125 -182,189 -14,83 122,171 107,254 -114,164 -229,328 -344,492 106,115 231,226 197,418 -105,131 -387,262 -340,393 28,66 -18,2919 6,2985 42,114 319,177 358,291 14,100 -267,176 -202,253 52,62 336,199 301,485 -62,68 -212,84 -273,152 -39,42 392,59 369,110 -38,85 -524,209 -588,279 l 148,738 c 175,111 355,219 467,393 -70,128 -216,180 -281,302 -121,228 -242,212 -358,215 21,14 43,1638 65,1651 156,94 327,181 377,328 -102,135 -264,211 -418,295 0,71 0,1272 0,1343 202,54 370,124 483,220 -440,55 -883,126 -1329,213 60,-216 298,-346 625,-433 0,-71 0,-1272 0,-1343 -154,-84 -316,-160 -418,-295 51,-150 227,-237 385,-333 20,-12 39,-1634 57,-1646 -117,-3 -237,13 -358,-215 -64,-122 -211,-174 -281,-302 112,-174 292,-282 467,-393 l 148,-738 c -64,-70 -550,-194 -588,-279 -23,-51 407,-68 369,-110 -62,-68 -212,-84 -273,-152 -35,-286 248,-423 301,-485 65,-77 -216,-153 -203,-253 40,-114 302,-177 344,-291 24,-66 -15,-2919 13,-2985 47,-131 -227,-262 -332,-393 -34,-192 91,-303 197,-418 -115,-164 -230,-328 -345,-492 -13,-83 122,-171 108,-254 -11,-64 -171,-124 -181,-189 221,-473 382,-546 541,-605 -25,-156 83,-379 58,-478 -202,-212 -316,-381 -108,-556 -49,-117 -98,-235 -147,-353 49,-168 98,-336 147,-504 0,-210 0,-420 0,-630 -82,-361 -257,-124 -418,-393 -21,-387 239,-675 443,-983 l 25,-1724 c -99,-123 -197,-246 -295,-369 106,-115 213,-230 319,-345 -109,-201 -270,-364 -312,-532 -12,-47 110,-95 93,-144 -40,-118 -161,-244 -201,-392 -32,-117 -66,-268 -2,-320 190,-157 308,-174 422,-186 -27,-25 -52,-1630 -75,-1656 -162,-184 -220,-393 5,-668 -132,-220 -325,-328 -545,-386 -3,-288 258,-448 640,-550 0,-71 0,-1272 0,-1343 -154,-84 -316,-159 -418,-295 51,-150 227,-237 385,-333 20,-12 39,-1634 57,-1646 -117,-3 -237,13 -358,-215 -64,-121 -211,-174 -281,-302 112,-174 292,-282 467,-393 l 148,-738 c -64,-70 -550,-193 -588,-279 -23,-51 407,-68 369,-110 -62,-68 -212,-84 -273,-152 -35,-286 248,-423 301,-485 65,-77 -216,-153 -203,-253 40,-114 302,-177 344,-291 24,-66 -15,-2918 13,-2985 47,-131 -227,-262 -332,-393 -34,-192 91,-303 197,-418 -115,-164 -230,-328 -345,-492 -13,-83 122,-171 108,-254 -11,-64 -171,-124 -181,-189 40,-87 79,-160 116,-222 369,-3 734,-37 1097,-110 59,81 121,188 189,332 -11,65 -171,125 -182,189 -14,83 122,171 107,254 -114,164 -229,328 -344,492 106,115 231,226 197,418 -105,131 -387,262 -340,393 28,67 -18,2919 6,2985 42,114 319,177 358,291 14,100 -267,176 -202,253 52,62 336,199 301,485 -62,68 -212,84 -273,152 -39,42 392,59 369,110 -38,86 -524,209 -588,279 l 148,738 c 175,111 355,219 467,393 -70,128 -216,181 -281,302 -121,228 -242,212 -358,215 21,14 43,1638 65,1651 156,94 327,181 377,328 -102,136 -264,211 -418,295 0,71 0,1272 0,1343 382,102 643,262 639,550 -219,58 -411,166 -544,386 225,275 167,484 5,668 -23,26 -48,1631 -75,1656 114,12 232,28 422,186 63,52 30,203 -2,320 -40,148 -161,274 -201,392 -17,49 105,97 93,144 -43,168 -203,331 -312,532 106,115 213,230 320,345 -99,123 -197,246 -296,369 z"
   id="path17"
   inkscape:connector-curvature="0"
   style="fill:#dededd" />
    </g>
    <g
   id="g19">
     <path
   d="m 14873,41919 0,9607 m 35000,-9512 0,9512"
   id="path21"
   inkscape:connector-curvature="0"
   style="fill:none;stroke:#1f1a17;stroke-width:52.44619751" />
     <g
   id="g23">
      <path
   d="m 14873,49742 2489,-1067 0,0 -32,67 -30,66 -28,67 -26,67 -24,67 -22,66 -20,67 -18,67 -15,66 -14,67 -11,67 -10,66 -7,67 -5,67 -3,66 -1,67 1,67 3,66 5,67 7,67 10,66 11,67 14,67 15,66 18,67 20,67 22,66 24,67 26,67 28,66 30,67 32,67 -2489,-1067 0,0 z"
   id="path25"
   inkscape:connector-curvature="0"
   style="fill:#1f1a17" />
      <path
   d="m 48622,49692 -32498,0 0,100 32498,0 z"
   id="path27"
   inkscape:connector-curvature="0"
   style="fill:#1f1a17" />
      <path
   d="m 49873,49742 -2489,-1067 0,0 32,67 30,66 28,67 27,67 23,67 22,66 20,67 18,67 16,66 13,67 12,67 9,66 7,67 5,67 4,66 1,67 -1,67 -4,66 -5,67 -7,67 -9,66 -12,67 -13,67 -16,66 -18,67 -20,67 -22,66 -23,67 -27,67 -28,66 -30,67 -32,67 2489,-1067 0,0 z"
   id="path29"
   inkscape:connector-curvature="0"
   style="fill:#1f1a17" />
     </g>
     <text
   x="27053"
   y="48699"
   font-weight="normal"
   font-size="3528"
   id="text31"
   style="font-size:3528px;font-weight:normal;fill:#1f1a17;font-family:Arial">35 mm</text>


     
     <text
   x="30977"
   y="48699"
   font-weight="normal"
   font-size="3528"
   id="text35"
   style="font-size:3528px;font-weight:normal;fill:#1f1a17;font-family:Arial"> </text>


    </g>
    <g
   id="g37">
     <g
   id="g39">
      <path
   d="m 37347,29813 -1066,-2489 0,0 66,32 67,30 67,28 66,26 67,24 67,22 66,20 67,18 67,15 66,14 67,11 67,10 66,7 67,5 67,3 66,1 67,-1 67,-3 66,-5 67,-7 67,-10 66,-11 67,-14 67,-15 66,-18 67,-20 67,-22 66,-24 67,-26 67,-28 66,-30 67,-32 -1067,2489 0,0 z"
   id="path41"
   inkscape:connector-curvature="0"
   style="fill:#1f1a17" />
      <path
   d="m 37297,15064 0,13498 100,0 0,-13498 z"
   id="path43"
   inkscape:connector-curvature="0"
   style="fill:#1f1a17" />
      <path
   d="m 37347,13813 -1066,2489 0,0 66,-32 67,-30 67,-28 66,-27 67,-23 67,-22 66,-20 67,-18 67,-16 66,-13 67,-12 67,-9 66,-7 67,-5 67,-4 66,-1 67,1 67,4 66,5 67,7 67,9 66,12 67,13 67,16 66,18 67,20 67,22 66,23 67,27 67,28 66,30 67,32 -1067,-2489 0,0 z"
   id="path45"
   inkscape:connector-curvature="0"
   style="fill:#1f1a17" />
     </g>
     <g
   transform="matrix(0,-1,1,0,-112195,126732)"
   id="g47">
      <text
   x="99609"
   y="148500"
   font-weight="normal"
   font-size="3528"
   id="text49"
   style="font-size:3528px;font-weight:normal;fill:#1f1a17;font-family:Arial">16 mm</text>


      
     </g>
    </g>
    <g
   id="g53">
     <g
   id="g55">
      <path
   d="m 20373,39637 2490,-1066 0,0 -33,66 -30,67 -28,67 -26,66 -24,67 -22,67 -20,66 -17,67 -16,67 -14,66 -11,67 -9,67 -8,66 -5,67 -3,67 -1,66 1,67 3,67 5,66 8,67 9,67 11,66 14,67 16,67 17,66 20,67 22,67 24,66 26,67 28,67 30,66 33,67 -2490,-1067 0,0 z"
   id="path57"
   inkscape:connector-curvature="0"
   style="fill:#1f1a17" />
      <path
   d="m 40892,39587 -19268,0 0,100 19268,0 z"
   id="path59"
   inkscape:connector-curvature="0"
   style="fill:#1f1a17" />
      <path
   d="m 42143,39637 -2489,-1066 0,0 32,66 31,67 28,67 26,66 24,67 22,67 19,66 18,67 16,67 13,66 12,67 9,67 7,66 6,67 3,67 1,66 -1,67 -3,67 -6,66 -7,67 -9,67 -12,66 -13,67 -16,67 -18,66 -19,67 -22,67 -24,66 -26,67 -28,67 -31,66 -32,67 2489,-1067 0,0 z"
   id="path61"
   inkscape:connector-curvature="0"
   style="fill:#1f1a17" />
     </g>
     <text
   x="25926.379"
   y="38638"
   font-weight="normal"
   font-size="3528"
   id="text63"
   style="font-size:3528px;font-weight:normal;fill:#1f1a17;font-family:Arial">22 mm</text>


     
     
     
    </g>
   </g>
   <text
   x="56952"
   y="10443"
   font-weight="normal"
   font-size="3528"
   id="text71"
   style="font-size:3528px;font-weight:normal;fill:#1f1a17;font-family:Arial">Optical</text>


   <text
   x="56952"
   y="14384"
   font-weight="normal"
   font-size="3528"
   id="text73"
   style="font-size:3528px;font-weight:normal;fill:#1f1a17;font-family:Arial">soundtrack</text>


   <path
   d="m 76921,16661 -21704,0 0,-13187 m 0,13187 -11293,6444"
   id="path75"
   inkscape:connector-curvature="0"
   style="fill:none;stroke:#da251d;stroke-width:173.07246399" />
   <g
   id="g77">
    <g
   transform="matrix(0,-1,1,0,-90994.7,143002)"
   id="g79">
     <text
   x="105000"
   y="148500"
   font-weight="normal"
   font-size="3528"
   id="text81"
   style="font-size:3528px;font-weight:normal;fill:#1f1a17;font-family:Arial">operation</text>


     <text
   x="105000"
   y="152441"
   font-weight="normal"
   font-size="3528"
   id="text83"
   style="font-size:3528px;font-weight:normal;fill:#1f1a17;font-family:Arial">side</text>


    </g>
    <g
   id="g85">
     <path
   d="m 62641,40416 -2489,1067 0,0 32,-67 30,-66 28,-67 26,-67 24,-66 22,-67 20,-67 18,-66 15,-67 14,-67 11,-66 10,-67 7,-67 5,-66 3,-67 1,-67 -1,-66 -3,-67 -5,-67 -7,-66 -10,-67 -11,-67 -14,-66 -15,-67 -18,-67 -20,-67 -22,-66 -24,-67 -26,-67 -28,-66 -30,-67 -32,-67 2489,1067 0,0 z"
   id="path87"
   inkscape:connector-curvature="0"
   style="fill:#da251d" />
     <path
   d="m 55141,40581 6249,0 0,-330 -6249,0 z"
   id="path89"
   inkscape:connector-curvature="0"
   style="fill:#da251d" />
    </g>
   </g>
   <g
   id="g91">
    <g
   transform="matrix(0,-1,1,0,-142896,143002)"
   id="g93">
     <text
   x="105000"
   y="148500"
   font-weight="normal"
   font-size="3528"
   id="text95"
   style="font-size:3528px;font-weight:normal;fill:#1f1a17;font-family:Arial">projector unit</text>


     <text
   x="105000"
   y="152441"
   font-weight="normal"
   font-size="3528"
   id="text97"
   style="font-size:3528px;font-weight:normal;fill:#1f1a17;font-family:Arial">side</text>


    </g>
    <g
   id="g99">
     <path
   d="m 3240,40416 2489,-1067 0,0 -32,67 -30,67 -28,66 -27,67 -23,67 -22,66 -20,67 -18,67 -16,67 -13,66 -12,67 -9,67 -7,66 -5,67 -4,67 -1,66 1,67 4,67 5,66 7,67 9,67 12,66 13,67 16,67 18,66 20,67 22,67 23,66 27,67 28,67 30,66 32,67 -2489,-1067 0,0 z"
   id="path101"
   inkscape:connector-curvature="0"
   style="fill:#da251d" />
     <path
   d="m 10740,40251 -6249,0 0,330 6249,0 z"
   id="path103"
   inkscape:connector-curvature="0"
   style="fill:#da251d" />
    </g>
   </g>
  </g>
 </g>
</svg>